<?xml version="1.0" encoding="utf-8"?>
<!-- Generator: Adobe Illustrator 21.0.2, SVG Export Plug-In . SVG Version: 6.00 Build 0)  -->
<svg version="1.1" id="Layer_2" xmlns="http://www.w3.org/2000/svg" xmlns:xlink="http://www.w3.org/1999/xlink" x="0px" y="0px"
	 viewBox="0 0 500 500" style="enable-background:new 0 0 500 500;" xml:space="preserve">
<style type="text/css">
	.st0{fill:#FFFFFF;}
</style>
<circle cx="207" cy="205" r="205"/>
<g>
	<path class="st0" d="M206.8,386.6C106.6,386.6,25,305,25,204.8S106.6,23,206.8,23s181.8,81.6,181.8,181.8S307,386.6,206.8,386.6z
		 M206.8,65.6c-76.8,0-139.2,62.4-139.2,139.2S130.1,344,206.8,344S346,281.6,346,204.8S283.6,65.6,206.8,65.6z"/>
</g>
<path class="st0" d="M480.4,459L467.3,472c-8.6,8.6-22.6,8.6-31.1,0L308.9,344.7c-8.6-8.6-8.6-22.6,0-31.1l13.1-13.1
	c8.6-8.6,22.6-8.6,31.1,0l127.4,127.4C489,436.4,489,450.4,480.4,459z"/>
</svg>
