<?xml version="1.0" encoding="utf-8"?>
<!-- Generator: Adobe Illustrator 21.0.2, SVG Export Plug-In . SVG Version: 6.00 Build 0)  -->
<svg version="1.1" id="Layer_2" xmlns="http://www.w3.org/2000/svg" xmlns:xlink="http://www.w3.org/1999/xlink" x="0px" y="0px"
	 viewBox="0 0 500 500" style="enable-background:new 0 0 500 500;" xml:space="preserve">
<path d="M64.3,429l-34.5-12.6c-4.9-1.8-7.5-7.3-5.7-12.2L144.3,75.8c1.8-4.9,7.3-7.5,12.2-5.7l34.5,12.6c4.9,1.8,7.5,7.3,5.7,12.2
	L76.5,423.3C74.7,428.2,69.2,430.8,64.3,429z"/>
<path d="M205.1,429l-34.5-12.6c-4.9-1.8-7.5-7.3-5.7-12.2L285,75.8c1.8-4.9,7.3-7.5,12.2-5.7l34.5,12.6c4.9,1.8,7.5,7.3,5.7,12.2
	L217.3,423.3C215.5,428.2,210,430.8,205.1,429z"/>
<path d="M345.8,429l-34.5-12.6c-4.9-1.8-7.5-7.3-5.7-12.2L425.8,75.8c1.8-4.9,7.3-7.5,12.2-5.7l34.5,12.6c4.9,1.8,7.5,7.3,5.7,12.2
	L358,423.3C356.2,428.2,350.7,430.8,345.8,429z"/>
</svg>
